<?xml version="1.0" encoding="UTF-8" standalone="no"?>
<!DOCTYPE svg PUBLIC "-//W3C//DTD SVG 1.0//EN"
"http://www.w3.org/TR/2001/REC-SVG-20010904/DTD/svg10.dtd">
<!-- Created by Philip Durbin based on work by Keith Packard -->
<svg
   xmlns="http://www.w3.org/2000/svg"
   xmlns:xlink="http://www.w3.org/1999/xlink"
   version="1.0"
   x="0"
   y="0"
   width="180"
   height="180"
   id="glider">
   
<g transform="translate(10,10)">>
    <g id="scale" transform="scale(20,20)">
	<g id="grid"
        style="fill:none;stroke-linejoin:round;stroke-linecap:butt;stroke:#000000;stroke-width:.1;"
	   >
	   	<!-- outside -->
		<path d="m 0 0 L 8 0 L 8 8 L 0 8 Z" />
	   	
		<!-- inside -->
		<path d="M 0 2 L 8 2" />
		<path d="M 0 4 L 8 4" />
		<path d="M 0 6 L 8 6" />
		
		<path d="M 2 0 L 2 8" />
		<path d="M 4 0 L 4 8" />
		<path d="M 6 0 L 6 8" />
	</g>
	<g id="dots"
	   style="fill:#000000"
	   >
		<ellipse cx="3" cy="3" rx=".7" ry=".7" id="b2" />
		<ellipse cx="5" cy="5" rx=".7" ry=".7" id="c3" />
		<ellipse cx="7" cy="5" rx=".7" ry=".7" id="d3" />
		<ellipse cx="3" cy="7" rx=".7" ry=".7" id="b4" />
		<ellipse cx="5" cy="7" rx=".7" ry=".7" id="c4" />
	</g>
    </g>
</g>
</svg>

